<svg width="540" height="156" viewBox="0 0 540 156" fill="none" xmlns="http://www.w3.org/2000/svg">
<path d="M537 138.009C537 146.323 530.126 153.057 521.623 153.057H18.3973C9.8985 153.057 3 146.323 3 138.009V18.0105C3 9.70097 9.8985 2.94336 18.3973 2.94336H521.619C530.126 2.94336 536.996 9.70097 536.996 18.0105L537 138.009Z" fill="white"/>
<path d="M520 3.12488C529.26 3.12488 536.795 10.4715 536.795 19.5V136.5C536.795 145.529 529.26 152.875 520 152.875H20C10.74 152.875 3.205 145.529 3.205 136.5V19.5C3.205 10.4715 10.74 3.12488 20 3.12488H520ZM520 1.52588e-05H20C9.005 1.52588e-05 0 8.77989 0 19.5V136.5C0 147.22 9.005 156 20 156H520C530.995 156 540 147.22 540 136.5V19.5C540 8.77989 530.995 1.52588e-05 520 1.52588e-05Z" fill="#A6A6A6"/>
<path d="M120.512 77.1574C120.396 64.5877 131.068 58.4725 131.556 58.1878C125.512 49.5961 116.144 48.4222 112.852 48.3286C104.984 47.5213 97.3524 52.9189 93.3444 52.9189C89.2564 52.9189 83.0844 48.4066 76.4324 48.5392C67.8723 48.6679 59.8644 53.5 55.4724 61.0036C46.4084 76.3033 53.1684 98.7868 61.8524 111.154C66.1964 117.21 71.2724 123.973 77.9164 123.735C84.4164 123.474 86.8444 119.695 94.6884 119.695C102.46 119.695 104.74 123.735 111.516 123.583C118.492 123.474 122.884 117.499 127.076 111.388C132.096 104.446 134.112 97.609 134.192 97.258C134.028 97.2034 120.644 92.2231 120.512 77.1574Z" fill="black"/>
<path d="M107.712 40.1932C111.208 35.9305 113.6 30.1312 112.936 24.2461C107.876 24.4645 101.548 27.6586 97.9044 31.8277C94.6804 35.5015 91.8004 41.5231 92.5443 47.1859C98.2283 47.5993 104.064 44.3896 107.712 40.1932Z" fill="black"/>
<path d="M196.2 39.0349C196.2 43.6252 194.788 47.0806 191.968 49.4011C189.356 51.5422 185.644 52.6147 180.836 52.6147C178.452 52.6147 176.412 52.5133 174.704 52.3105V27.2296C176.932 26.8786 179.332 26.6992 181.924 26.6992C186.504 26.6992 189.956 27.6703 192.284 29.6125C194.892 31.8082 196.2 34.9477 196.2 39.0349ZM191.78 39.148C191.78 36.1723 190.972 33.8908 189.356 32.2996C187.74 30.7123 185.38 29.9167 182.272 29.9167C180.952 29.9167 179.828 30.0025 178.896 30.1819V49.249C179.412 49.327 180.356 49.3621 181.728 49.3621C184.936 49.3621 187.412 48.4924 189.156 46.753C190.9 45.0136 191.78 42.4786 191.78 39.148Z" fill="black"/>
<path d="M219.636 43.0445C219.636 45.872 218.808 48.1886 217.152 50.006C215.416 51.8741 213.116 52.8062 210.244 52.8062C207.476 52.8062 205.272 51.9131 203.628 50.1191C201.988 48.329 201.168 46.0709 201.168 43.3487C201.168 40.5017 202.012 38.1656 203.708 36.3521C205.404 34.5386 207.684 33.6299 210.556 33.6299C213.324 33.6299 215.548 34.523 217.232 36.3131C218.832 38.0525 219.636 40.2989 219.636 43.0445ZM215.288 43.1771C215.288 41.4806 214.912 40.0259 214.164 38.813C213.284 37.3466 212.032 36.6134 210.404 36.6134C208.72 36.6134 207.44 37.3466 206.56 38.813C205.808 40.0259 205.436 41.504 205.436 43.2512C205.436 44.9477 205.812 46.4024 206.56 47.6153C207.468 49.0817 208.732 49.8149 210.364 49.8149C211.964 49.8149 213.22 49.07 214.124 47.5763C214.9 46.34 215.288 44.8736 215.288 43.1771Z" fill="black"/>
<path d="M251.06 34.0039L245.16 52.3885H241.32L238.876 44.4052C238.256 42.4123 237.752 40.4311 237.36 38.4655H237.284C236.92 40.4857 236.416 42.463 235.768 44.4052L233.172 52.3885H229.288L223.74 34.0039H228.048L230.18 42.7438C230.696 44.8108 231.12 46.7803 231.46 48.6445H231.536C231.848 47.1079 232.364 45.1501 233.092 42.7828L235.768 34.0078H239.184L241.748 42.5956C242.368 44.6899 242.872 46.7062 243.26 48.6484H243.376C243.66 46.7569 244.088 44.7406 244.656 42.5956L246.944 34.0078H251.06V34.0039Z" fill="black"/>
<path d="M272.792 52.3889H268.6V41.8589C268.6 38.6141 267.336 36.9917 264.8 36.9917C263.556 36.9917 262.552 37.4363 261.772 38.3294C261 39.2225 260.608 40.2755 260.608 41.4806V52.385H256.416V39.2576C256.416 37.643 256.364 35.8919 256.264 33.9965H259.948L260.144 36.8708H260.26C260.748 35.9777 261.476 35.2406 262.432 34.6517C263.568 33.9653 264.84 33.6182 266.232 33.6182C267.992 33.6182 269.456 34.172 270.62 35.2835C272.068 36.6446 272.792 38.6765 272.792 41.3753V52.3889Z" fill="black"/>
<path d="M284.352 52.3887H280.164V25.5684H284.352V52.3887Z" fill="black"/>
<path d="M309.032 43.0445C309.032 45.872 308.204 48.1886 306.548 50.006C304.812 51.8741 302.508 52.8062 299.64 52.8062C296.868 52.8062 294.664 51.9131 293.024 50.1191C291.384 48.329 290.564 46.0709 290.564 43.3487C290.564 40.5017 291.408 38.1656 293.104 36.3521C294.8 34.5386 297.08 33.6299 299.948 33.6299C302.72 33.6299 304.94 34.523 306.628 36.3131C308.228 38.0525 309.032 40.2989 309.032 43.0445ZM304.68 43.1771C304.68 41.4806 304.304 40.0259 303.556 38.813C302.68 37.3466 301.424 36.6134 299.8 36.6134C298.112 36.6134 296.832 37.3466 295.956 38.813C295.204 40.0259 294.832 41.504 294.832 43.2512C294.832 44.9477 295.208 46.4024 295.956 47.6153C296.864 49.0817 298.128 49.8149 299.76 49.8149C301.36 49.8149 302.612 49.07 303.516 47.5763C304.296 46.34 304.68 44.8736 304.68 43.1771Z" fill="black"/>
<path d="M329.32 52.3889H325.556L325.244 50.2712H325.128C323.84 51.9599 322.004 52.8062 319.62 52.8062C317.84 52.8062 316.4 52.2485 315.316 51.1409C314.332 50.1347 313.84 48.8828 313.84 47.3969C313.84 45.1505 314.8 43.4384 316.732 42.2528C318.66 41.0672 321.372 40.4861 324.864 40.5134V40.1702C324.864 37.7483 323.56 36.5393 320.948 36.5393C319.088 36.5393 317.448 36.9956 316.032 37.9004L315.18 35.2172C316.932 34.1603 319.096 33.6299 321.648 33.6299C326.576 33.6299 329.048 36.1649 329.048 41.2349V48.0053C329.048 49.8422 329.14 51.3047 329.32 52.3889ZM324.968 46.0709V43.2356C320.344 43.1576 318.032 44.3939 318.032 46.9406C318.032 47.9 318.296 48.6176 318.836 49.0973C319.376 49.577 320.064 49.8149 320.884 49.8149C321.804 49.8149 322.664 49.5302 323.448 48.9647C324.236 48.3953 324.72 47.6738 324.9 46.7885C324.944 46.5896 324.968 46.3478 324.968 46.0709Z" fill="black"/>
<path d="M353.141 52.3887H349.421L349.225 49.4364H349.109C347.921 51.6828 345.897 52.806 343.053 52.806C340.781 52.806 338.889 51.9363 337.389 50.1969C335.889 48.4575 335.141 46.1994 335.141 43.4265C335.141 40.4508 335.953 38.0406 337.585 36.1998C339.165 34.4838 341.101 33.6258 343.405 33.6258C345.937 33.6258 347.709 34.4565 348.717 36.1218H348.797V25.5684H352.993V47.4357C352.993 49.2258 353.041 50.8755 353.141 52.3887ZM348.797 44.6355V41.5701C348.797 41.0397 348.757 40.6107 348.681 40.2831C348.445 39.3003 347.937 38.4735 347.165 37.8066C346.385 37.1397 345.445 36.8043 344.361 36.8043C342.797 36.8043 341.573 37.4088 340.673 38.6217C339.781 39.8346 339.329 41.3829 339.329 43.2744C339.329 45.0918 339.757 46.566 340.617 47.7009C341.525 48.9099 342.749 49.5144 344.281 49.5144C345.657 49.5144 346.757 49.0113 347.593 48.0012C348.401 47.0691 348.797 45.9459 348.797 44.6355Z" fill="black"/>
<path d="M388.992 43.0445C388.992 45.872 388.164 48.1886 386.508 50.006C384.772 51.8741 382.476 52.8062 379.6 52.8062C376.836 52.8062 374.632 51.9131 372.984 50.1191C371.344 48.329 370.524 46.0709 370.524 43.3487C370.524 40.5017 371.368 38.1656 373.064 36.3521C374.76 34.5386 377.04 33.6299 379.916 33.6299C382.68 33.6299 384.908 34.523 386.588 36.3131C388.188 38.0525 388.992 40.2989 388.992 43.0445ZM384.648 43.1771C384.648 41.4806 384.272 40.0259 383.524 38.813C382.64 37.3466 381.392 36.6134 379.76 36.6134C378.08 36.6134 376.8 37.3466 375.916 38.813C375.164 40.0259 374.792 41.504 374.792 43.2512C374.792 44.9477 375.168 46.4024 375.916 47.6153C376.824 49.0817 378.088 49.8149 379.72 49.8149C381.32 49.8149 382.58 49.07 383.484 47.5763C384.256 46.34 384.648 44.8736 384.648 43.1771Z" fill="black"/>
<path d="M411.532 52.3889H407.344V41.8589C407.344 38.6141 406.08 36.9917 403.54 36.9917C402.296 36.9917 401.292 37.4363 400.516 38.3294C399.74 39.2225 399.352 40.2755 399.352 41.4806V52.385H395.156V39.2576C395.156 37.643 395.108 35.8919 395.008 33.9965H398.688L398.884 36.8708H399C399.492 35.9777 400.22 35.2406 401.172 34.6517C402.312 33.9653 403.58 33.6182 404.976 33.6182C406.732 33.6182 408.196 34.172 409.36 35.2835C410.812 36.6446 411.532 38.6765 411.532 41.3753V52.3889Z" fill="black"/>
<path d="M439.744 37.0654H435.128V45.9964C435.128 48.2662 435.948 49.4011 437.572 49.4011C438.324 49.4011 438.948 49.3387 439.44 49.21L439.548 52.3105C438.72 52.6147 437.632 52.7668 436.292 52.7668C434.636 52.7668 433.348 52.2754 432.416 51.2926C431.48 50.3098 431.016 48.6562 431.016 46.3357V37.0654H428.26V34.0039H431.016V30.6343L435.124 29.4253V34H439.74V37.0654H439.744Z" fill="black"/>
<path d="M461.937 52.3887H457.741V41.9367C457.741 38.6412 456.477 36.9915 453.945 36.9915C452.001 36.9915 450.673 37.947 449.945 39.858C449.821 40.2597 449.749 40.7511 449.749 41.3283V52.3848H445.561V25.5684H449.749V36.6483H449.829C451.149 34.632 453.041 33.6258 455.493 33.6258C457.229 33.6258 458.665 34.1796 459.805 35.2911C461.225 36.6756 461.937 38.7348 461.937 41.457V52.3887Z" fill="black"/>
<path d="M484.828 42.3268C484.828 43.06 484.772 43.6762 484.672 44.1793H472.1C472.156 45.9967 472.756 47.3812 473.92 48.3406C474.984 49.1986 476.356 49.6276 478.036 49.6276C479.896 49.6276 481.592 49.339 483.12 48.7579L483.776 51.5971C481.988 52.3537 479.884 52.732 477.448 52.732C474.528 52.732 472.228 51.8935 470.564 50.2165C468.892 48.5395 468.064 46.2892 468.064 43.4656C468.064 40.6927 468.836 38.3839 470.392 36.5431C472.016 34.5775 474.212 33.5947 476.984 33.5947C479.696 33.5947 481.756 34.5775 483.148 36.5431C484.272 38.1031 484.828 40.0336 484.828 42.3268ZM480.828 41.2699C480.86 40.057 480.584 39.0118 480.016 38.1304C479.288 36.9955 478.18 36.4261 476.68 36.4261C475.312 36.4261 474.196 36.9799 473.344 38.0914C472.648 38.9767 472.236 40.0336 472.1 41.2699H480.828Z" fill="black"/>
<path d="M214.58 122.866H205.496L200.52 107.62H183.224L178.484 122.866H169.64L186.776 70.9644H197.36L214.58 122.866ZM199.02 101.224L194.52 87.672C194.044 86.2875 193.152 83.0271 191.836 77.8947H191.676C191.152 80.1021 190.308 83.3625 189.148 87.672L184.728 101.224H199.02Z" fill="black"/>
<path d="M258.648 103.694C258.648 110.058 256.884 115.089 253.356 118.783C250.196 122.07 246.272 123.712 241.588 123.712C236.532 123.712 232.9 121.942 230.688 118.401H230.528V138.115H222V97.7617C222 93.7603 221.892 89.6536 221.684 85.4416H229.184L229.66 91.3735H229.82C232.664 86.9041 236.98 84.6733 242.772 84.6733C247.3 84.6733 251.08 86.4166 254.104 89.9071C257.136 93.4015 258.648 97.9957 258.648 103.694ZM249.96 103.998C249.96 100.355 249.12 97.3522 247.432 94.9888C245.588 92.524 243.112 91.2916 240.008 91.2916C237.904 91.2916 235.992 91.978 234.284 93.3313C232.572 94.6963 231.452 96.4786 230.928 98.686C230.664 99.7156 230.532 100.558 230.532 101.221V107.461C230.532 110.183 231.388 112.48 233.1 114.356C234.812 116.232 237.036 117.168 239.772 117.168C242.984 117.168 245.484 115.959 247.272 113.549C249.064 111.135 249.96 107.952 249.96 103.998Z" fill="black"/>
<path d="M302.796 103.694C302.796 110.058 301.032 115.089 297.5 118.783C294.344 122.07 290.42 123.712 285.736 123.712C280.68 123.712 277.048 121.942 274.84 118.401H274.68V138.115H266.152V97.7617C266.152 93.7603 266.044 89.6536 265.836 85.4416H273.336L273.812 91.3735H273.972C276.812 86.9041 281.128 84.6733 286.924 84.6733C291.448 84.6733 295.228 86.4166 298.26 89.9071C301.28 93.4015 302.796 97.9957 302.796 103.694ZM294.108 103.998C294.108 100.355 293.264 97.3522 291.576 94.9888C289.732 92.524 287.264 91.2916 284.156 91.2916C282.048 91.2916 280.14 91.978 278.428 93.3313C276.716 94.6963 275.6 96.4786 275.076 98.686C274.816 99.7156 274.68 100.558 274.68 101.221V107.461C274.68 110.183 275.536 112.48 277.24 114.356C278.952 116.228 281.176 117.168 283.92 117.168C287.132 117.168 289.632 115.959 291.42 113.549C293.212 111.135 294.108 107.952 294.108 103.998Z" fill="black"/>
<path d="M352.156 108.311C352.156 112.726 350.584 116.318 347.428 119.091C343.96 122.121 339.132 123.634 332.928 123.634C327.2 123.634 322.608 122.558 319.132 120.401L321.108 113.471C324.852 115.678 328.96 116.786 333.436 116.786C336.648 116.786 339.148 116.076 340.944 114.664C342.732 113.252 343.624 111.357 343.624 108.994C343.624 106.888 342.888 105.113 341.412 103.674C339.944 102.235 337.492 100.897 334.068 99.6608C324.748 96.2717 320.092 91.307 320.092 84.7784C320.092 80.5118 321.724 77.0135 324.992 74.2913C328.248 71.5652 332.592 70.2041 338.024 70.2041C342.868 70.2041 346.892 71.027 350.104 72.6689L347.972 79.4471C344.972 77.8559 341.58 77.0603 337.784 77.0603C334.784 77.0603 332.44 77.7818 330.76 79.217C329.34 80.5001 328.628 82.064 328.628 83.9165C328.628 85.9679 329.44 87.6644 331.072 88.9982C332.492 90.2306 335.072 91.5644 338.816 93.0035C343.396 94.8014 346.76 96.9035 348.924 99.3137C351.08 101.716 352.156 104.723 352.156 108.311Z" fill="black"/>
<path d="M380.352 91.6811H370.952V109.851C370.952 114.473 372.608 116.782 375.928 116.782C377.452 116.782 378.716 116.653 379.716 116.395L379.952 122.71C378.272 123.322 376.06 123.63 373.32 123.63C369.952 123.63 367.32 122.628 365.42 120.627C363.528 118.622 362.576 115.261 362.576 110.538V91.6733H356.976V85.4333H362.576V78.581L370.952 76.1162V85.4333H380.352V91.6811Z" fill="black"/>
<path d="M422.764 103.845C422.764 109.598 421.076 114.321 417.708 118.014C414.176 121.816 409.488 123.712 403.644 123.712C398.012 123.712 393.528 121.891 390.184 118.248C386.84 114.605 385.168 110.007 385.168 104.465C385.168 98.6661 386.888 93.9159 390.34 90.2226C393.784 86.5254 398.432 84.6768 404.276 84.6768C409.908 84.6768 414.44 86.4981 417.86 90.1446C421.132 93.6819 422.764 98.2488 422.764 103.845ZM413.916 104.114C413.916 100.663 413.16 97.7028 411.628 95.2341C409.84 92.2467 407.284 90.7569 403.972 90.7569C400.544 90.7569 397.94 92.2506 396.152 95.2341C394.62 97.7067 393.864 100.714 393.864 104.27C393.864 107.722 394.62 110.682 396.152 113.147C397.996 116.134 400.572 117.624 403.896 117.624C407.152 117.624 409.708 116.103 411.552 113.069C413.124 110.553 413.916 107.562 413.916 104.114Z" fill="black"/>
<path d="M450.483 92.7541C449.639 92.602 448.739 92.524 447.795 92.524C444.795 92.524 442.475 93.6277 440.843 95.839C439.423 97.789 438.711 100.254 438.711 103.23V122.866H430.187L430.267 97.2274C430.267 92.914 430.159 88.9867 429.947 85.4455H437.375L437.687 92.6059H437.923C438.823 90.145 440.243 88.1638 442.187 86.6779C444.087 85.3402 446.139 84.6733 448.351 84.6733C449.139 84.6733 449.851 84.7279 450.483 84.8254V92.7541Z" fill="black"/>
<path d="M488.624 102.383C488.624 103.873 488.524 105.129 488.312 106.154H462.728C462.828 109.852 464.064 112.679 466.44 114.629C468.596 116.372 471.384 117.246 474.808 117.246C478.596 117.246 482.052 116.657 485.16 115.475L486.496 121.247C482.864 122.792 478.576 123.56 473.628 123.56C467.676 123.56 463.004 121.852 459.604 118.439C456.212 115.027 454.512 110.444 454.512 104.696C454.512 99.0525 456.092 94.353 459.256 90.6051C462.568 86.6037 467.044 84.603 472.676 84.603C478.208 84.603 482.396 86.6037 485.24 90.6051C487.492 93.7836 488.624 97.7148 488.624 102.383ZM480.492 100.226C480.548 97.7616 479.992 95.6322 478.836 93.8343C477.36 91.5216 475.092 90.3672 472.04 90.3672C469.252 90.3672 466.984 91.4943 465.252 93.7563C463.832 95.5542 462.988 97.7109 462.728 100.223H480.492V100.226Z" fill="black"/>
</svg>
