<svg width="232" height="70" viewBox="0 0 232 70" fill="none" xmlns="http://www.w3.org/2000/svg">
<g clip-path="url(#clip0_258_4002)">
<path d="M0.46784 32.1419C1.15846 28.5119 2.56198 25.0812 4.58929 22.0045M0 37.2327C0 42.0358 1.24757 46.7281 3.63133 50.9115M58.3018 51C60.7302 46.8167 62 42.0579 62 37.2327C62 29.3309 58.636 22.1595 53.1556 16.9137M50.0812 14.3241C48.9673 13.5051 47.8088 12.7747 46.6058 12.1107M15.6392 12C12.9659 13.4166 10.5376 15.2094 8.39885 17.3343M19.7607 22.1152C15.9066 24.2179 12.9436 27.4274 11.4732 31.2123M10.4707 36.6351C10.4707 38.9591 11.0054 41.2389 12.0525 43.3195M13.456 45.6879C14.4808 47.1044 15.7284 48.3882 17.1319 49.4506C17.3992 49.672 17.466 49.7162 17.7557 49.9154M44.2443 49.2293C45.2023 48.4546 46.0934 47.6135 46.8732 46.6617M49.5465 42.235C50.705 39.3354 50.9501 36.1481 50.2149 33.1158M48.4549 28.8439C46.94 26.3428 44.8236 24.2179 42.3061 22.6907" stroke="url(#paint0_linear_258_4002)" stroke-miterlimit="10" stroke-linecap="round" stroke-linejoin="round"/>
<path d="M57.541 59.0016C56.923 58.7806 56.2829 58.6038 55.5325 58.3607C57.7396 57.4546 58.777 55.5761 59.9688 53.8744C60.1675 53.6092 60.0571 52.8357 59.7922 52.6147C59.4832 52.3495 58.8873 52.3937 58.4017 52.3937C58.2031 52.3937 58.0045 52.6368 57.7617 52.8136C57.7396 52.46 57.7175 52.1948 57.6734 51.9517C57.6292 51.6865 57.563 51.4213 57.4748 51.1561C57.254 50.4268 56.5036 49.808 55.996 49.9185C55.2897 50.0953 54.9145 50.8467 55.0469 51.7307C55.0911 51.9959 55.0248 52.239 54.9145 52.46C54.5834 52.9683 54.2082 53.4545 53.7888 53.8965C52.6191 55.1341 51.1844 55.112 49.9043 53.8744C48.889 53.3661 47.8296 52.9683 46.8585 52.3716C44.0554 50.6257 42.8415 47.9958 42.5546 44.7692C42.3559 42.294 41.9145 39.8409 41.6276 37.3657C41.4951 36.2828 41.0758 35.5314 40.1709 35.0673V35.0452C38.8686 34.4485 37.6106 33.7855 36.3746 33.1004C35.867 32.8131 35.4255 32.4595 35.0282 32.0396C34.5206 31.5534 34.1675 30.9346 34.013 30.2495C36.0435 28.5257 37.434 25.277 37.434 22.1388C37.434 17.5862 34.1454 15.0005 30.5478 15.0005C28.76 14.9784 27.0605 15.6635 25.7804 16.9011C23.9264 18.7354 23.816 21.1001 23.7719 22.1388C23.6174 25.6527 25.5817 27.9511 27.1488 29.7854C27.215 29.8517 27.2812 29.918 27.3474 29.9843C27.3474 30.0948 27.2591 30.9788 26.3101 31.9733C25.9128 32.3932 25.4493 32.7468 24.9637 33.0341C23.7277 33.7192 22.4476 34.3822 21.1675 34.9789C20.1963 35.4209 19.7549 36.106 19.6225 37.1226C19.2252 40.1945 18.7617 43.2443 18.3203 46.3162C17.9451 49.0124 16.4221 50.9572 14.215 52.3716L12.5817 53.3219C11.9196 53.6976 11.8975 53.6534 11.0147 54.1617C10.0215 54.8026 8.93996 55.2225 8.05711 54.4711C7.15219 53.7197 5.80584 53.1009 6.09277 51.3992C6.15898 51.0235 5.65134 50.3384 5.23199 50.1174C4.63606 49.7859 4.15049 50.2058 3.92978 50.8688C3.70907 51.5318 3.92978 53.4103 3.73114 53.4987C3.5325 53.565 1.96543 51.9517 1.30329 52.681C0.641155 53.4103 1.08258 54.0733 1.56815 54.6921C2.69379 56.1286 3.68699 57.6977 5.47477 58.3607C4.48156 58.7364 3.51042 59.0016 2.62757 59.4436C0.0893723 60.7475 -0.705194 63.3331 0.663226 65.8525C1.81093 67.9741 3.75321 69.057 6.00448 69.5874C8.82961 70.2504 11.6768 70.0294 14.5019 69.5211C18.0996 68.8581 21.5206 67.6426 24.8534 66.2061C25.5376 65.8746 26.3101 65.7641 27.0384 65.9188C29.069 66.3608 31.1658 66.626 33.1743 66.0735C34.7413 65.6536 36.0435 66.0072 37.434 66.6039C42.2014 68.6592 47.1675 69.9852 52.4204 69.7863C54.7158 69.6979 56.8568 69.1675 58.6887 67.6868C59.9467 66.6702 60.8296 65.4326 60.9841 63.7972C61.1607 61.6756 59.8585 59.8635 57.541 59.0016ZM14.5902 68.5045C11.7872 69.0128 8.98411 69.278 6.18105 68.6813C4.39328 68.3498 2.82621 67.3332 1.76679 65.8525C0.288014 63.8193 0.795654 61.5209 3.02486 60.3055C5.27613 59.0679 7.74811 59.0678 10.1097 59.7309C12.7583 60.4822 15.2965 61.5651 17.8347 62.6038C19.9756 63.4657 22.0503 64.4381 24.2795 65.4326C21.1013 66.7365 17.9451 67.9078 14.5902 68.5045ZM16.687 60.7253C17.0181 60.7032 17.3271 60.7032 17.6581 60.7474C18.0996 60.8358 18.541 60.9684 18.9603 61.1452C20.417 61.7198 22.0062 61.764 23.485 61.2999C24.1471 61.101 24.8313 61.0126 25.5376 60.9906C26.3984 60.9684 26.9943 61.4104 27.0605 62.3165C27.1267 63.2226 27.5019 63.5983 28.4289 63.5983C29.4663 63.5983 29.8194 64.0182 30.0622 65.3884C25.1624 65.0127 20.8805 63.09 16.687 60.7253ZM30.8126 63.5541C29.9298 63.2226 29.1793 62.9574 28.451 62.6259C28.2303 62.5154 28.0758 62.3165 28.0096 62.0734C27.5902 60.5485 26.5529 59.8192 24.9637 60.0182C24.8313 60.0182 24.7209 60.0402 24.6106 60.0844C22.3814 60.8358 20.2184 60.9464 18.0113 59.8193C17.1063 59.3552 16.2235 59.7529 15.5393 60.5043L12.1182 59.1783L12.0741 58.9795C12.9128 58.8248 13.7736 58.5816 14.6123 58.5154C16.1131 58.4049 17.6361 58.3165 19.159 58.3386C21.1454 58.3828 22.4255 57.4325 23.2642 55.7087C24.4561 53.2777 24.5223 50.6478 24.2574 48.04C24.1471 46.8466 23.7719 45.6753 23.4187 44.5261C23.3305 44.2167 22.867 44.0178 22.58 43.7526C22.58 44.1283 22.4476 44.5482 22.58 44.8797C23.8602 47.8632 23.2642 50.7141 20.726 52.7473C17.1946 55.5761 13.0673 57.1673 8.63097 57.8745C6.73283 58.1839 5.09956 57.4767 3.81942 56.0402C3.09107 55.2225 2.451 54.3164 1.89922 53.3882C2.84828 53.4545 3.17935 54.1175 3.51042 54.8026C3.77528 55.3993 4.08428 55.9518 4.87884 55.9297C5.51891 55.9076 5.84998 55.7087 5.65134 54.9573C5.47477 54.3164 5.40856 53.6534 5.47477 52.9904C5.87205 53.4766 6.24726 53.9628 6.62248 54.449C7.57154 55.5982 8.78546 56.0181 10.198 55.4877C12.9128 54.4932 15.3186 53.0346 17.2608 50.8246C18.6955 49.1892 19.1369 47.2002 19.4018 45.1228C19.7549 42.4708 20.1522 39.8409 20.5053 37.1889C20.5495 36.6143 20.9247 36.106 21.4544 35.8629C22.7345 35.2441 24.0147 34.6253 25.2507 33.9181C26.6411 33.1446 27.7668 32.1501 27.9213 30.4484C28.3406 30.7136 28.7821 30.9567 29.2235 31.1335C29.378 31.1777 29.5325 31.1114 29.5987 30.9567C29.5987 30.9346 29.6208 30.9125 29.6208 30.8904L29.6428 30.6031C29.6649 30.3821 29.5546 30.1832 29.3559 30.0948C26.7736 29.0782 24.5664 25.5864 24.5664 22.2272C24.5664 18.2492 27.3474 15.995 30.5036 15.995C33.6598 15.995 36.507 18.2492 36.507 22.2272C36.507 25.7853 34.3661 29.1666 31.85 30.2716C31.6734 30.3379 31.5851 30.5147 31.5851 30.6915L31.6293 31.0009C31.6513 31.1777 31.8058 31.3103 31.9824 31.2882C32.0045 31.2882 32.0486 31.2661 32.0707 31.2661C32.5121 31.1335 32.9535 30.9346 33.3288 30.6694C33.5495 32.2606 34.653 33.2109 35.9994 33.9623L36.2863 34.117L36.4408 34.2054C36.9926 34.5148 37.5664 34.8021 38.1403 35.0894C38.6259 35.3325 39.1114 35.5756 39.597 35.7966C40.1488 36.0176 40.524 36.5259 40.5461 37.1005C40.9213 40.0398 41.4289 42.9791 41.7379 45.9405C41.9807 48.6146 43.4153 51.0456 45.6225 52.5484C47.035 53.5429 48.5359 54.4048 50.1029 55.112C52.3542 56.1507 53.8771 55.5761 55.1573 53.4324C55.3118 53.1451 55.5325 52.8799 55.7973 52.7031C55.6649 53.3219 55.5987 53.9628 55.5325 54.5816C55.5325 54.9794 55.709 55.3772 55.7973 55.7971C56.2388 55.6645 56.7243 55.6203 57.0775 55.3551C57.3865 55.112 57.4748 54.6037 57.7396 54.2943C58.1369 53.8302 58.5783 53.4103 59.0197 52.9683L59.395 53.3219C58.3576 54.4711 57.4085 55.7308 56.2388 56.7253C54.8703 57.8745 53.1488 58.0292 51.4051 57.6314C47.8958 56.8358 44.541 55.5982 41.5172 53.6313C37.6327 51.134 37.3678 48.5041 38.2507 44.504C38.2948 44.3272 38.4272 44.1504 38.4052 43.9957C38.361 43.7526 38.2727 43.5316 38.1624 43.3106C37.9637 43.4211 37.6106 43.5095 37.5664 43.6642C37.3457 44.283 37.1912 44.946 37.0809 45.609C36.9043 46.8687 36.7498 48.1284 36.6394 49.4102C36.3967 51.576 36.816 53.7418 37.8092 55.6645C38.6479 57.2336 39.906 58.0513 41.76 58.0734C43.6802 58.1175 45.6225 58.4049 47.5427 58.6038C47.8517 58.6259 48.1607 58.8027 48.6462 58.9574C47.5868 59.4214 46.6819 59.7971 45.777 60.1507C45.6004 60.195 45.4238 60.1728 45.2914 60.0623C44.4085 59.2446 43.4374 59.4878 42.4883 59.8634C41.2965 60.3275 40.1488 60.9021 38.8024 60.5706C38.0299 60.3938 37.2795 60.1287 36.507 60.0182C34.4323 59.6866 33.4832 60.3717 33.108 62.5154C32.181 62.6038 31.1878 62.7806 30.8126 63.5541ZM14.1267 57.4104C17.4816 55.9297 21.0792 54.6037 23.2863 51.2445C23.485 52.7694 22.7345 55.4877 21.631 56.4601C21.035 56.9684 20.3067 57.2778 19.5563 57.3662C17.7243 57.4988 15.8704 57.4104 14.1267 57.4104ZM46.5053 57.1894C44.6513 57.1894 42.8194 57.2115 40.9654 57.1894C40.0826 57.1894 39.5529 56.5706 39.0673 55.9297C38.0962 54.5816 37.7651 53.0125 37.5885 51.2003C39.9281 54.4048 43.1726 55.9297 46.5053 57.1894ZM31.2761 65.4105C31.2982 64.1066 31.7175 63.5983 32.8432 63.5983C33.6157 63.5762 34.1012 63.2889 34.1233 62.5154C34.1454 61.2115 35.2048 60.8358 36.2201 61.0126C36.7277 61.101 37.2354 61.2115 37.7209 61.3662C39.1556 61.7861 40.7006 61.7198 42.0911 61.1452C42.7973 60.8579 43.5698 60.7032 44.3423 60.6811C40.2591 63.0016 36.0656 64.9685 31.2761 65.4105ZM57.6955 67.2227C56.1284 68.4161 54.2965 68.7476 52.3984 68.836C47.8296 69.057 43.5036 67.952 39.288 66.3608C38.4714 66.0514 37.6547 65.6978 36.7939 65.3663C40.3916 63.753 43.8788 62.0955 47.4102 60.6148C50.2133 59.4214 53.1708 58.9574 56.2167 59.5983C58.0486 59.9739 59.6598 60.8579 60.013 62.9132C60.3219 64.8359 59.1522 66.1398 57.6955 67.2227ZM31.2541 35.7303C31.4748 35.8408 31.6955 35.9292 31.9383 35.9734C31.0554 36.0397 30.6361 36.4817 30.5919 37.3215C30.5478 36.5038 30.1726 36.0397 29.2456 35.9955C30.0843 35.8187 30.5919 35.3767 30.614 34.5369C30.6361 34.7579 30.7023 34.9789 30.7685 35.1778C30.9009 35.4209 31.0554 35.5977 31.2541 35.7303ZM29.0248 20.6139C30.0181 20.3929 30.5919 19.9067 30.614 18.9122C30.6361 19.1774 30.7023 19.4205 30.8126 19.6636C30.9451 19.9067 31.1437 20.1277 31.3644 20.2824C31.6293 20.415 31.8941 20.5034 32.159 20.5697C31.1437 20.636 30.6581 21.1664 30.5919 22.1388C30.5478 21.2106 30.1063 20.6581 29.0248 20.6139ZM31.2541 56.5706C31.4748 56.6811 31.6955 56.7695 31.9383 56.8137C31.0554 56.88 30.6361 57.322 30.5919 58.1618C30.5478 57.3441 30.1726 56.88 29.2456 56.8358C30.0843 56.659 30.5919 56.217 30.614 55.3772C30.6361 55.5982 30.7023 55.8192 30.7685 56.0181C30.9009 56.2391 31.0554 56.438 31.2541 56.5706ZM31.2541 45.6311C31.4748 45.7416 31.6955 45.83 31.9383 45.8742C31.0554 45.9405 30.6361 46.3825 30.5919 47.2223C30.5478 46.4046 30.1726 45.9405 29.2456 45.8963C30.0843 45.7195 30.5919 45.2775 30.614 44.4377C30.6361 44.6587 30.7023 44.8797 30.7685 45.0786C30.9009 45.2996 31.0554 45.4985 31.2541 45.6311Z" fill="#C05495"/>
<path d="M72.1834 41.1331V36.0859L67.5352 27.1176H70.2328L73.636 34.2505H73.1379L76.5411 27.1176H79.2387L74.549 36.0859V41.1331H72.1834ZM83.7625 41.3834C82.8494 41.3834 81.9779 41.1749 81.1893 40.716C80.4423 40.2572 79.8198 39.6315 79.4047 38.8389C78.9482 38.0047 78.7407 37.0453 78.7407 36.1276C78.7407 35.1682 78.9482 34.2088 79.4047 33.3745C79.8198 32.6237 80.4423 31.9563 81.2308 31.5392C82.8494 30.6632 84.8 30.6632 86.3771 31.5392C87.1241 31.998 87.7467 32.6237 88.1617 33.3745C89.0332 35.1265 89.0332 37.1704 88.1617 38.8806C87.7467 39.6315 87.1241 40.2989 86.3771 40.716C85.5885 41.1749 84.6755 41.4251 83.7625 41.3834ZM83.7625 39.2978C84.219 39.2978 84.6755 39.1726 85.049 38.9224C85.464 38.6721 85.7961 38.2967 86.0036 37.8378C86.4601 36.7116 86.4601 35.4185 86.0036 34.2922C85.7961 33.8334 85.464 33.4997 85.0905 33.2077C84.302 32.7071 83.3059 32.7071 82.4759 33.2077C82.0609 33.458 81.7289 33.8334 81.5213 34.2922C81.2723 34.8345 81.1478 35.4602 81.1893 36.0442C81.1893 36.6699 81.2723 37.2538 81.5628 37.8378C81.7704 38.2967 82.1024 38.6721 82.5174 38.9224C82.8494 39.2143 83.3059 39.3395 83.7625 39.2978ZM94.802 45.7633C93.972 45.7633 93.1004 45.6381 92.3119 45.4296C91.6893 45.221 91.1083 44.8873 90.6518 44.3867C90.2368 43.8862 90.0293 43.2605 90.0708 42.6348C90.0708 42.2177 90.1953 41.8005 90.4028 41.4251C90.6518 41.008 90.9423 40.6326 91.3158 40.3406C91.8139 39.9652 92.3534 39.6732 92.9344 39.4646L93.972 40.6326C93.4739 40.7994 93.0174 41.0497 92.6439 41.4668C92.3949 41.7588 92.2704 42.0925 92.2704 42.4679C92.2704 42.8017 92.3949 43.0936 92.6024 43.3439C92.8514 43.5942 93.1419 43.7611 93.4739 43.8445C93.889 43.9696 94.304 44.0113 94.7605 44.0113C95.1755 44.0113 95.5905 43.9696 95.9641 43.8028C96.2961 43.7193 96.5451 43.5108 96.7941 43.2605C97.0016 43.0102 97.0846 42.7182 97.0846 42.4262C97.0846 42.0508 96.9601 41.7171 96.6696 41.4668C96.3791 41.2166 95.8396 41.0497 95.0095 41.008C94.387 40.9663 93.7645 40.8829 93.1419 40.7577C92.6854 40.6743 92.2289 40.5492 91.7724 40.424C91.4403 40.2989 91.1083 40.1737 90.8178 39.9652C90.5688 39.84 90.3613 39.6732 90.1538 39.4646V39.0058L92.2289 36.795L94.0135 37.379L91.6478 39.6732L92.2704 38.5052C92.3949 38.5886 92.5609 38.6721 92.6854 38.7555C92.8514 38.8389 93.0174 38.9224 93.2249 38.9641C93.5154 39.0475 93.806 39.0892 94.0965 39.1309C94.47 39.1726 94.9265 39.2561 95.5075 39.2978C96.2546 39.3395 97.0016 39.5063 97.6656 39.7983C98.1637 40.0069 98.6202 40.3406 98.9107 40.7994C99.2012 41.2583 99.3257 41.8005 99.3257 42.3428C99.3257 42.9268 99.1597 43.5108 98.8277 44.0113C98.4542 44.5536 97.9562 45.0124 97.3336 45.3044C96.5451 45.6799 95.6735 45.8467 94.802 45.7633ZM94.802 38.0881C94.055 38.1298 93.3079 37.963 92.6439 37.6293C92.0629 37.3373 91.6063 36.8784 91.2743 36.2944C90.6518 35.1682 90.6518 33.75 91.2743 32.6237C91.6063 32.0814 92.0629 31.6226 92.6439 31.2889C93.3079 30.9552 94.055 30.7883 94.802 30.7883C95.549 30.7466 96.2961 30.9552 96.9601 31.2889C98.1222 31.9146 98.8277 33.1243 98.8277 34.4591C98.8277 35.0848 98.6617 35.7522 98.3297 36.2944C97.9977 36.8367 97.5411 37.2956 96.9601 37.6293C96.2961 37.963 95.549 38.1298 94.802 38.0881ZM94.802 36.2527C95.3 36.2944 95.798 36.1276 96.1716 35.7939C96.5451 35.4602 96.7111 34.9596 96.6696 34.4591C96.7111 33.9585 96.5036 33.4997 96.1716 33.166C95.798 32.8323 95.3 32.7071 94.802 32.7071C94.304 32.6654 93.806 32.8323 93.3909 33.166C93.0174 33.4997 92.8099 34.0002 92.8514 34.4591C92.8099 34.9596 93.0174 35.4602 93.3909 35.7939C93.7645 36.1276 94.2625 36.2944 94.802 36.2527ZM96.4621 32.7906L96.0056 31.0803H100.114V32.582L96.4621 32.7906ZM105.593 41.3834C104.887 41.4251 104.181 41.2583 103.517 40.9663C103.019 40.716 102.604 40.3406 102.314 39.84C102.023 39.3812 101.899 38.8389 101.899 38.3384C101.899 37.7544 102.065 37.1704 102.397 36.6699C102.77 36.1693 103.268 35.7939 103.849 35.5853C104.596 35.2933 105.385 35.1682 106.215 35.2099H108.747C108.747 34.7511 108.705 34.2922 108.539 33.8751C108.415 33.5414 108.166 33.2494 107.875 33.0825C107.502 32.874 107.128 32.7906 106.713 32.8323C106.215 32.8323 105.759 32.9574 105.302 33.2077C104.929 33.458 104.638 33.8751 104.596 34.3339H102.272C102.314 33.6665 102.563 32.9991 102.978 32.4986C103.393 31.9563 103.932 31.5392 104.555 31.2889C106.008 30.7049 107.668 30.7049 109.12 31.3306C109.743 31.6226 110.282 32.1232 110.656 32.7488C111.029 33.4163 111.195 34.1671 111.195 34.9179V41.1749H109.162L108.913 39.548C108.788 39.7983 108.622 40.0486 108.415 40.2989C108.207 40.5075 107.958 40.716 107.709 40.8829C107.419 41.0497 107.128 41.1749 106.796 41.2583C106.34 41.3417 105.966 41.3834 105.593 41.3834ZM106.132 39.4646C106.506 39.4646 106.838 39.3812 107.17 39.2561C107.46 39.1309 107.751 38.9224 107.958 38.6721C108.166 38.4218 108.332 38.1298 108.456 37.7961C108.581 37.4624 108.664 37.1287 108.705 36.795V36.7533H106.506C106.132 36.7533 105.717 36.795 105.344 36.9201C105.095 37.0036 104.845 37.1704 104.679 37.4207C104.555 37.6293 104.472 37.8795 104.472 38.1715C104.472 38.4218 104.555 38.6721 104.679 38.8806C104.804 39.0892 105.012 39.2561 105.261 39.3395C105.51 39.4229 105.8 39.5063 106.132 39.4646ZM117.877 41.1331C117.255 41.1331 116.674 41.0497 116.134 40.7994C115.636 40.5909 115.221 40.2155 114.972 39.7566C114.681 39.1309 114.515 38.4635 114.557 37.7544V33.0825H112.855V31.0803H114.557L114.847 28.4107H116.964V31.0803H119.662V33.1243H116.923V37.7544C116.881 38.1298 117.006 38.5052 117.255 38.7972C117.587 39.0058 117.96 39.1309 118.375 39.0892H119.62V41.1331H117.877ZM121.903 41.1331V26.7422H124.31V32.6237C124.642 32.0814 125.098 31.6226 125.68 31.3306C126.261 30.9969 126.925 30.83 127.63 30.83C128.336 30.83 129.083 30.9969 129.705 31.3306C130.286 31.6643 130.743 32.2066 130.992 32.8323C131.324 33.6248 131.448 34.4591 131.448 35.2933V41.1331H129.083V35.5019C129.124 34.7928 128.917 34.0837 128.543 33.4997C128.128 33.0408 127.506 32.7906 126.883 32.8323C125.929 32.8323 125.098 33.3328 124.683 34.1671C124.434 34.6676 124.31 35.2099 124.351 35.7522V41.0914L121.903 41.1331ZM138.628 41.3834C137.715 41.3834 136.802 41.1749 136.014 40.716C135.266 40.2989 134.644 39.6315 134.229 38.8806C133.772 38.0464 133.565 37.087 133.606 36.1693C133.565 35.2099 133.814 34.2505 134.229 33.3745C134.644 32.582 135.225 31.9563 136.014 31.4975C136.802 31.0386 137.757 30.7883 138.67 30.83C139.583 30.7883 140.454 31.0386 141.243 31.4975C141.948 31.9146 142.529 32.5403 142.944 33.2494C143.359 34.0002 143.567 34.8762 143.525 35.7522V36.211C143.525 36.3779 143.525 36.5447 143.484 36.7116H135.308V35.1682H141.118C141.118 34.5008 140.869 33.8751 140.371 33.458C139.915 33.0408 139.292 32.7906 138.628 32.8323C138.172 32.8323 137.674 32.9574 137.259 33.166C136.844 33.4163 136.512 33.75 136.263 34.1671C136.014 34.7094 135.889 35.2516 135.889 35.8356V36.4196C135.889 36.9618 136.014 37.5458 136.221 38.0464C136.429 38.4635 136.761 38.8389 137.176 39.0892C137.591 39.3395 138.047 39.4646 138.545 39.4229C139.043 39.4229 139.5 39.2978 139.915 39.0475C140.288 38.7972 140.537 38.4635 140.703 38.0881H143.152C142.986 38.7138 142.654 39.2978 142.239 39.7566C141.824 40.2572 141.284 40.6743 140.662 40.9246C140.081 41.2583 139.375 41.3834 138.628 41.3834ZM145.725 41.1331V31.0803H147.842L148.049 32.9574C148.257 32.5403 148.589 32.1649 148.962 31.8312C149.336 31.4975 149.751 31.2472 150.207 31.0803C150.705 30.9135 151.245 30.83 151.826 30.83V33.3745H150.996C150.622 33.3745 150.249 33.4162 149.875 33.5414C149.543 33.6248 149.211 33.7917 148.962 34.0002C148.672 34.2505 148.464 34.5425 148.34 34.9179C148.174 35.3768 148.091 35.8773 148.132 36.3362V41.1749L145.725 41.1331Z" fill="#C15696"/>
<path d="M71.534 58.184L70 52.392H71.078L72.156 57.067L73.3998 52.392H74.5192L75.7216 57.067L76.841 52.392H77.919L76.3435 58.184H75.1411L73.9388 53.7987L72.6949 58.184H71.534ZM78.6653 58.184V52.2266H79.6603V54.6675C79.7847 54.4606 79.992 54.2537 80.2408 54.1296C80.4895 54.0055 80.7798 53.9228 81.0285 53.9228C81.3188 53.9228 81.6504 54.0055 81.8992 54.1296C82.148 54.2951 82.3138 54.502 82.4382 54.7502C82.5626 55.0812 82.6455 55.4121 82.604 55.7845V58.184H81.609V55.8672C81.6504 55.5776 81.5675 55.288 81.4017 55.0398C81.2358 54.8329 80.9871 54.7502 80.6969 54.7502C80.4895 54.7502 80.3237 54.7916 80.1579 54.9157C79.992 54.9984 79.8676 55.1639 79.7847 55.3294C79.7018 55.5363 79.6189 55.7431 79.6603 55.9913V58.184H78.6653ZM85.6307 58.2667C85.2575 58.2667 84.8844 58.184 84.5527 58.0185C84.221 57.853 83.9722 57.5634 83.8064 57.2738C83.6406 56.9429 83.5162 56.5292 83.5576 56.1568C83.5576 55.7431 83.6406 55.3708 83.8064 54.9984C83.9722 54.6675 84.221 54.4192 84.5527 54.2124C84.8844 54.0055 85.2575 53.9228 85.6721 53.9228C86.0453 53.9228 86.4184 54.0055 86.7501 54.2124C87.0403 54.3779 87.2891 54.6261 87.4549 54.9571C87.6208 55.288 87.7037 55.619 87.7037 55.9913V56.1568C87.7037 56.2396 87.7037 56.2809 87.7037 56.3637H84.3039V55.7431H86.7086C86.7086 55.4535 86.5843 55.2053 86.377 55.0398C86.1697 54.8743 85.9209 54.7502 85.6721 54.7916C85.4648 54.7916 85.299 54.8329 85.0917 54.9157C84.9258 54.9984 84.76 55.1639 84.6771 55.3294C84.5527 55.5363 84.5112 55.7845 84.5112 56.0327V56.2809C84.5112 56.5292 84.5527 56.736 84.6356 56.9429C84.7185 57.1084 84.8844 57.2738 85.0502 57.3566C85.2161 57.4393 85.4234 57.5221 85.6307 57.5221C85.838 57.5221 86.0453 57.4807 86.2111 57.3566C86.377 57.2738 86.4599 57.1084 86.5428 56.9429H87.5379C87.4549 57.1911 87.3306 57.4393 87.1647 57.6462C86.9989 57.853 86.7501 58.0185 86.5013 58.1426C86.2526 58.184 85.9209 58.2667 85.6307 58.2667ZM88.5744 58.184V54.0055H89.4865L89.5694 54.7916C89.6524 54.6261 89.7767 54.4606 89.9426 54.3365C90.1084 54.2124 90.2743 54.0883 90.4816 54.0469C90.6889 53.9641 90.9376 53.9228 91.1449 53.9228V54.9571H90.8133C90.6474 54.9571 90.4816 54.9571 90.3157 54.9984C90.1913 55.0398 90.0255 55.1225 89.9426 55.2053C89.8182 55.288 89.7353 55.4535 89.6938 55.5776C89.6109 55.7845 89.6109 55.95 89.6109 56.1568V58.1426L88.5744 58.184ZM93.757 58.2667C93.3838 58.2667 93.0107 58.184 92.679 58.0185C92.3473 57.853 92.0985 57.5634 91.9327 57.2738C91.7668 56.9429 91.6425 56.5292 91.6839 56.1568C91.6839 55.7431 91.7668 55.3708 91.9327 54.9984C92.0985 54.6675 92.3473 54.4192 92.679 54.2124C93.0107 54.0055 93.3838 53.9228 93.7984 53.9228C94.1716 53.9228 94.5447 54.0055 94.8764 54.2124C95.1666 54.3779 95.4154 54.6261 95.5812 54.9571C95.7471 55.288 95.83 55.619 95.83 55.9913V56.1568C95.83 56.2396 95.83 56.2809 95.83 56.3637H92.3888V55.7431H94.7935C94.7935 55.4535 94.6691 55.2053 94.5033 55.0398C94.2959 54.8743 94.0472 54.7916 93.7984 54.7916C93.5911 54.7916 93.4253 54.8329 93.218 54.9157C93.0521 54.9984 92.8863 55.1639 92.8034 55.3294C92.679 55.5363 92.6375 55.7845 92.6375 56.0327V56.2809C92.6375 56.5292 92.679 56.736 92.7619 56.9429C92.8448 57.1084 93.0107 57.2738 93.1765 57.3566C93.3424 57.4393 93.5497 57.5221 93.757 57.5221C93.9643 57.5221 94.1716 57.4807 94.3374 57.3566C94.5033 57.2738 94.5862 57.1084 94.6691 56.9429H95.6642C95.5812 57.1911 95.4568 57.4393 95.291 57.6462C95.1252 57.853 94.8764 58.0185 94.6276 58.1426C94.3374 58.184 94.0472 58.2667 93.757 58.2667ZM97.6543 58.184L96.1202 54.0055H97.1567L98.2762 57.2325L99.3956 54.0055H100.432L98.8981 58.184H97.6543ZM102.878 58.2667C102.505 58.2667 102.132 58.184 101.8 58.0185C101.469 57.853 101.22 57.5634 101.054 57.2738C100.888 56.9429 100.764 56.5292 100.805 56.1568C100.805 55.7431 100.888 55.3708 101.054 54.9984C101.22 54.6675 101.469 54.4192 101.8 54.2124C102.132 54.0055 102.505 53.9228 102.92 53.9228C103.293 53.9228 103.666 54.0055 103.998 54.2124C104.288 54.3779 104.537 54.6261 104.703 54.9571C104.868 55.288 104.951 55.619 104.951 55.9913V56.1568C104.951 56.2396 104.951 56.2809 104.951 56.3637H101.51V55.7431H103.915C103.915 55.4535 103.79 55.2053 103.625 55.0398C103.417 54.8743 103.169 54.7916 102.92 54.7916C102.712 54.7916 102.547 54.8329 102.339 54.9157C102.173 54.9984 102.008 55.1639 101.925 55.3294C101.8 55.5363 101.759 55.7845 101.759 56.0327V56.2809C101.759 56.5292 101.8 56.736 101.883 56.9429C101.966 57.1084 102.132 57.2738 102.298 57.3566C102.464 57.4393 102.671 57.5221 102.878 57.5221C103.086 57.5221 103.293 57.4807 103.459 57.3566C103.625 57.2738 103.708 57.1084 103.79 56.9429H104.785C104.703 57.1911 104.578 57.4393 104.412 57.6462C104.247 57.853 103.998 58.0185 103.749 58.1426C103.5 58.184 103.169 58.2667 102.878 58.2667ZM105.822 58.184V54.0055H106.734L106.817 54.7916C106.9 54.6261 107.024 54.4606 107.19 54.3365C107.356 54.2124 107.522 54.0883 107.729 54.0469C107.937 53.9641 108.185 53.9228 108.393 53.9228V54.9571H108.061C107.895 54.9571 107.729 54.9571 107.605 54.9984C107.48 55.0398 107.315 55.1225 107.232 55.2053C107.107 55.288 107.024 55.4535 106.983 55.5776C106.9 55.7845 106.9 55.95 106.9 56.1568V58.1426L105.822 58.184ZM111.627 60.0043L112.663 57.7289H112.414L110.756 54.0055H111.834L113.078 56.8188L114.239 54.0055H115.275L112.663 60.0043H111.627ZM117.597 58.2667C117.224 58.2667 116.851 58.184 116.519 57.9772C116.187 57.8117 115.938 57.5221 115.773 57.1911C115.607 56.8601 115.482 56.4464 115.482 56.0741C115.482 55.6604 115.565 55.288 115.773 54.9157C115.938 54.5847 116.229 54.3365 116.519 54.1296C117.182 53.7573 118.011 53.7573 118.675 54.1296C119.007 54.2951 119.255 54.5847 119.421 54.9157C119.587 55.288 119.711 55.6604 119.67 56.0741C119.67 56.4878 119.587 56.8601 119.38 57.2325C119.214 57.5634 118.965 57.8117 118.633 58.0185C118.343 58.184 117.97 58.2667 117.597 58.2667ZM117.597 57.398C117.804 57.398 117.97 57.3566 118.136 57.2325C118.302 57.1084 118.426 56.9842 118.509 56.7774C118.633 56.5292 118.675 56.2809 118.675 56.0327C118.675 55.7845 118.633 55.5363 118.509 55.288C118.343 54.9157 117.97 54.7088 117.597 54.7088C117.39 54.7088 117.224 54.7502 117.058 54.8743C116.892 54.9984 116.726 55.1225 116.643 55.3294C116.519 55.5776 116.477 55.8259 116.477 56.0741C116.477 56.3223 116.519 56.5705 116.643 56.8188C116.726 56.9842 116.892 57.1497 117.058 57.2738C117.265 57.3566 117.431 57.398 117.597 57.398ZM122.24 58.2667C121.95 58.2667 121.66 58.2254 121.37 58.0599C121.121 57.9358 120.914 57.6875 120.831 57.4393C120.706 57.1084 120.623 56.7774 120.623 56.405V54.0055H121.619V56.3637C121.577 56.6533 121.66 56.9429 121.826 57.1911C121.992 57.398 122.24 57.4807 122.531 57.4807C122.738 57.4807 122.904 57.4393 123.07 57.3566C123.235 57.2738 123.36 57.1084 123.443 56.9429C123.526 56.736 123.567 56.5292 123.567 56.2809V54.0055H124.562V58.184H123.692L123.609 57.4807C123.484 57.7289 123.277 57.9358 123.07 58.0599C122.821 58.184 122.531 58.2667 122.24 58.2667ZM129.081 58.2667C128.791 58.2667 128.501 58.2254 128.211 58.1013C128.003 58.0185 127.838 57.853 127.713 57.6462C127.589 57.4393 127.547 57.2325 127.547 57.0256C127.547 56.7774 127.63 56.5292 127.755 56.3223C127.921 56.1155 128.128 55.95 128.335 55.8672C128.667 55.7431 128.999 55.7017 129.33 55.7017H130.367C130.367 55.4949 130.325 55.3294 130.284 55.1639C130.242 55.0398 130.118 54.9157 129.994 54.8329C129.828 54.7502 129.662 54.7088 129.496 54.7088C129.289 54.7088 129.081 54.7502 128.916 54.8743C128.75 54.9984 128.667 55.1639 128.625 55.3294H127.63C127.672 55.0398 127.755 54.7916 127.921 54.5433C128.086 54.3365 128.335 54.171 128.584 54.0469C129.206 53.7987 129.869 53.7987 130.491 54.0883C130.74 54.2124 130.989 54.4192 131.113 54.6675C131.279 54.9571 131.362 55.2466 131.32 55.5776V58.1426H130.491L130.408 57.4807C130.367 57.6048 130.284 57.6876 130.201 57.7703C130.035 57.9772 129.786 58.1013 129.538 58.184C129.413 58.2668 129.289 58.2667 129.081 58.2667ZM129.33 57.4807C129.455 57.4807 129.62 57.4393 129.745 57.398C129.869 57.3566 129.994 57.2738 130.077 57.1497C130.159 57.0256 130.242 56.9015 130.284 56.7774C130.325 56.6533 130.367 56.4878 130.367 56.3637H129.496C129.33 56.3637 129.164 56.405 128.999 56.4464C128.874 56.4878 128.791 56.5705 128.708 56.6533C128.667 56.736 128.625 56.8601 128.625 56.9429C128.625 57.067 128.667 57.1497 128.708 57.2325C128.75 57.3152 128.833 57.398 128.957 57.4393C129.081 57.4807 129.206 57.4807 129.33 57.4807ZM132.44 58.184V54.0055H133.31L133.393 54.7916C133.476 54.6261 133.601 54.4606 133.767 54.3365C133.932 54.2124 134.098 54.0883 134.305 54.0469C134.513 53.9641 134.762 53.9228 134.969 53.9228V54.9571H134.637C134.471 54.9571 134.305 54.9571 134.181 54.9984C134.057 55.0398 133.891 55.1225 133.808 55.2053C133.684 55.288 133.601 55.4535 133.559 55.5776C133.476 55.7845 133.476 55.95 133.476 56.1568V58.1426L132.44 58.184ZM137.622 58.2667C137.249 58.2667 136.876 58.184 136.544 58.0185C136.213 57.853 135.964 57.5634 135.798 57.2738C135.632 56.9429 135.508 56.5292 135.549 56.1568C135.549 55.7431 135.632 55.3708 135.798 54.9984C135.964 54.6675 136.213 54.4192 136.544 54.2124C136.876 54.0055 137.249 53.9228 137.664 53.9228C138.037 53.9228 138.41 54.0055 138.742 54.2124C139.032 54.3779 139.281 54.6261 139.447 54.9571C139.612 55.288 139.695 55.619 139.695 55.9913V56.1568C139.695 56.2396 139.695 56.2809 139.695 56.3637H136.296V55.7431H138.7C138.7 55.4535 138.576 55.2053 138.41 55.0398C138.203 54.8743 137.954 54.7502 137.705 54.7916C137.498 54.7916 137.332 54.8329 137.125 54.9157C136.959 54.9984 136.793 55.1639 136.71 55.3294C136.586 55.5363 136.544 55.7845 136.544 56.0327V56.2809C136.544 56.5292 136.586 56.736 136.71 56.9429C136.793 57.1084 136.959 57.2738 137.125 57.3566C137.291 57.4393 137.498 57.5221 137.705 57.5221C137.913 57.5221 138.078 57.4807 138.286 57.398C138.452 57.3152 138.576 57.1497 138.617 56.9842H139.612C139.447 57.5221 139.073 57.9358 138.576 58.184C138.244 58.2254 137.954 58.2667 137.622 58.2667ZM140.151 59.1769L140.608 57.1497H141.561L140.773 59.1769H140.151ZM143.012 58.184L141.768 54.0055H142.763L143.634 57.4393H143.468L144.422 54.0055H145.541L146.495 57.4393H146.288L147.158 54.0055H148.153L146.91 58.184H145.873L144.837 54.6675H145.044L144.007 58.184H143.012ZM148.858 58.184V52.2266H149.853V54.6675C150.143 54.2124 150.682 53.9228 151.221 53.9228C151.512 53.9228 151.843 54.0055 152.092 54.1296C152.341 54.2537 152.507 54.502 152.631 54.7502C152.755 55.0812 152.838 55.4121 152.797 55.7845V58.184H151.843V55.8672C151.885 55.5776 151.802 55.288 151.595 55.0398C151.429 54.8329 151.18 54.7502 150.89 54.7502C150.682 54.7502 150.517 54.7916 150.351 54.9157C150.185 54.9984 150.061 55.1639 149.978 55.3294C149.895 55.5363 149.812 55.7431 149.853 55.9913V58.184H148.858ZM155.824 58.2667C155.45 58.2667 155.077 58.184 154.746 58.0185C154.414 57.853 154.165 57.5634 153.999 57.2738C153.833 56.9429 153.709 56.5292 153.751 56.1568C153.751 55.7431 153.833 55.3708 153.999 54.9984C154.165 54.6675 154.414 54.4192 154.746 54.2124C155.077 54.0055 155.45 53.9228 155.865 53.9228C156.238 53.9228 156.611 54.0055 156.943 54.2124C157.233 54.3779 157.482 54.6261 157.648 54.9571C157.814 55.288 157.897 55.619 157.897 55.9913V56.1568C157.897 56.2396 157.897 56.2809 157.897 56.3637H154.497V55.7431H156.902C156.902 55.4535 156.777 55.2053 156.611 55.0398C156.404 54.8743 156.155 54.7502 155.907 54.7916C155.699 54.7916 155.533 54.8329 155.326 54.9157C155.16 54.9984 154.994 55.1639 154.911 55.3294C154.787 55.5363 154.746 55.7845 154.746 56.0327V56.2809C154.746 56.5292 154.787 56.736 154.911 56.9429C154.994 57.1084 155.16 57.2738 155.326 57.3566C155.492 57.4393 155.699 57.5221 155.907 57.5221C156.114 57.5221 156.321 57.5221 156.487 57.398C156.653 57.3152 156.777 57.1497 156.819 56.9842H157.814C157.648 57.5221 157.275 57.9358 156.777 58.184C156.487 58.2254 156.155 58.2667 155.824 58.2667ZM158.767 58.184V54.0055H159.638L159.721 54.7088C159.845 54.4606 160.053 54.2537 160.26 54.1296C160.509 53.9641 160.799 53.9228 161.089 53.9228C161.379 53.9228 161.67 54.0055 161.96 54.1296C162.209 54.2537 162.374 54.502 162.499 54.7502C162.623 55.0812 162.706 55.4121 162.706 55.7431V58.184H161.711V55.8258C161.711 55.5362 161.67 55.2467 161.462 55.0398C161.296 54.8329 161.048 54.7502 160.757 54.7502C160.55 54.7502 160.384 54.7916 160.218 54.8743C160.053 54.9571 159.928 55.1225 159.845 55.288C159.762 55.4949 159.721 55.7017 159.721 55.95V58.184H158.767ZM165.733 58.2667C165.36 58.2667 164.986 58.184 164.655 58.0185C164.323 57.853 164.074 57.5634 163.908 57.2738C163.743 56.9429 163.618 56.5292 163.66 56.1568C163.66 55.7431 163.743 55.3708 163.908 54.9984C164.074 54.6675 164.323 54.4192 164.655 54.2124C164.986 54.0055 165.36 53.9228 165.774 53.9228C166.147 53.9228 166.52 54.0055 166.852 54.2124C167.142 54.3779 167.391 54.6261 167.557 54.9571C167.723 55.288 167.806 55.619 167.806 55.9913V56.1568C167.806 56.2396 167.806 56.2809 167.806 56.3637H164.406V55.7431H166.811C166.811 55.4535 166.686 55.2053 166.52 55.0398C166.313 54.8743 166.064 54.7502 165.816 54.7916C165.608 54.7916 165.442 54.8329 165.235 54.9157C165.069 54.9984 164.903 55.1639 164.821 55.3294C164.696 55.5363 164.655 55.7845 164.655 56.0327V56.2809C164.655 56.5292 164.696 56.736 164.821 56.9429C164.903 57.1084 165.069 57.2738 165.235 57.3566C165.401 57.4393 165.608 57.5221 165.816 57.5221C166.023 57.5221 166.23 57.4807 166.396 57.3566C166.562 57.2738 166.686 57.1084 166.728 56.9429H167.723C167.557 57.4807 167.184 57.8944 166.686 58.1426C166.396 58.184 166.064 58.2667 165.733 58.2667ZM169.671 58.184L168.137 54.0055H169.174L170.293 57.2325L171.413 54.0055H172.449L170.915 58.184H169.671ZM174.895 58.2667C174.522 58.2667 174.149 58.184 173.818 58.0185C173.486 57.853 173.237 57.5634 173.071 57.2738C172.905 56.9429 172.781 56.5292 172.822 56.1568C172.822 55.7431 172.905 55.3708 173.071 54.9984C173.237 54.6675 173.486 54.4192 173.818 54.2124C174.149 54.0055 174.522 53.9228 174.937 53.9228C175.31 53.9228 175.683 54.0055 176.015 54.2124C176.305 54.3779 176.554 54.6261 176.72 54.9571C176.886 55.288 176.969 55.619 176.969 55.9913V56.1568C176.969 56.2396 176.969 56.2809 176.969 56.3637H173.569V55.7431H175.973C175.973 55.4535 175.849 55.2053 175.683 55.0398C175.476 54.8743 175.227 54.7502 174.978 54.7916C174.771 54.7916 174.605 54.8329 174.398 54.9157C174.232 54.9984 174.066 55.1639 173.983 55.3294C173.859 55.5363 173.818 55.7845 173.818 56.0327V56.2809C173.818 56.5292 173.859 56.736 173.983 56.9429C174.066 57.1084 174.232 57.2738 174.398 57.3566C174.564 57.4393 174.771 57.5221 174.978 57.5221C175.186 57.5221 175.393 57.4807 175.559 57.3566C175.725 57.2738 175.849 57.1084 175.891 56.9429H176.886C176.72 57.4807 176.347 57.8944 175.849 58.1426C175.517 58.184 175.227 58.2667 174.895 58.2667ZM177.839 58.184V54.0055H178.71L178.793 54.7916C178.876 54.6261 179 54.4606 179.166 54.3365C179.332 54.2124 179.498 54.0883 179.705 54.0469C179.912 53.9641 180.161 53.9228 180.368 53.9228V54.9571H180.037C179.871 54.9571 179.705 54.9571 179.581 54.9984C179.456 55.0398 179.29 55.1225 179.207 55.2053C179.083 55.288 179 55.4535 178.959 55.5776C178.876 55.7845 178.876 55.95 178.876 56.1568V58.1426L177.839 58.184ZM183.644 60.0043L184.68 57.7289H184.431L182.773 54.0055H183.851L185.095 56.8188L186.297 54.0055H187.334L184.722 60.0043H183.644ZM189.614 58.2667C189.241 58.2667 188.868 58.184 188.536 57.9772C188.204 57.8117 187.956 57.5221 187.79 57.1911C187.417 56.4878 187.417 55.619 187.79 54.9157C187.956 54.5847 188.246 54.3365 188.536 54.1296C189.199 53.7573 190.029 53.7573 190.692 54.1296C191.024 54.2951 191.272 54.5847 191.438 54.9157C191.811 55.619 191.811 56.4878 191.438 57.1911C191.272 57.5221 191.024 57.7703 190.692 57.9772C190.36 58.184 190.029 58.2667 189.614 58.2667ZM189.614 57.398C189.821 57.398 189.987 57.3566 190.153 57.2325C190.319 57.1084 190.443 56.9842 190.568 56.7774C190.692 56.5292 190.733 56.2809 190.733 56.0327C190.733 55.7845 190.692 55.5363 190.568 55.288C190.402 54.9157 190.029 54.7088 189.655 54.7088C189.448 54.7088 189.282 54.7502 189.116 54.8743C188.951 54.9984 188.785 55.1225 188.702 55.3294C188.577 55.5776 188.536 55.8259 188.536 56.0741C188.536 56.3223 188.577 56.5705 188.702 56.8188C188.785 56.9842 188.909 57.1497 189.116 57.2738C189.241 57.3566 189.448 57.4393 189.614 57.398ZM194.216 58.2667C193.926 58.2667 193.636 58.184 193.345 58.0599C193.097 57.9358 192.889 57.6875 192.806 57.4393C192.682 57.1084 192.599 56.7774 192.599 56.405V54.0055H193.594V56.3637C193.553 56.6533 193.636 56.9429 193.802 57.1911C193.967 57.398 194.216 57.4807 194.506 57.4807C194.714 57.4807 194.88 57.4393 195.045 57.3566C195.211 57.2738 195.336 57.1084 195.419 56.9429C195.501 56.736 195.543 56.5292 195.543 56.2809V54.0055H196.538V58.184H195.667L195.584 57.4807C195.46 57.7289 195.253 57.9358 195.045 58.0599C194.838 58.184 194.548 58.2667 194.216 58.2667ZM200.56 58.184L199.316 54.0055H200.311L201.182 57.4393H201.016L201.969 54.0055H203.089L204.042 57.4393H203.876L204.747 54.0055H205.742L204.498 58.184H203.462L202.425 54.6675H202.633L201.721 58.184H200.56ZM207.566 58.2667C207.276 58.2667 206.986 58.2254 206.696 58.1013C206.489 58.0185 206.323 57.853 206.198 57.6462C206.074 57.4393 206.032 57.2325 206.032 57.0256C206.032 56.7774 206.115 56.5292 206.24 56.3223C206.406 56.1155 206.613 55.95 206.862 55.8672C207.193 55.7431 207.525 55.7017 207.857 55.7017H208.893C208.893 55.4949 208.852 55.3294 208.81 55.1639C208.769 55.0398 208.644 54.9157 208.52 54.8329C208.354 54.7502 208.188 54.7088 208.023 54.7088C207.815 54.7088 207.608 54.7502 207.442 54.8743C207.276 54.9984 207.193 55.1639 207.152 55.3294H206.198C206.24 55.0398 206.323 54.7916 206.489 54.5433C206.654 54.3365 206.903 54.171 207.152 54.0469C207.774 53.7987 208.437 53.7987 209.059 54.0883C209.308 54.2124 209.557 54.4192 209.681 54.6675C209.847 54.9571 209.93 55.2466 209.888 55.5776V58.1426H209.059L208.976 57.4807C208.935 57.6048 208.852 57.6876 208.769 57.7703C208.603 57.9772 208.354 58.1013 208.105 58.184C207.94 58.2668 207.774 58.2667 207.566 58.2667ZM207.815 57.4807C207.94 57.4807 208.105 57.4393 208.23 57.398C208.354 57.3566 208.479 57.2738 208.562 57.1497C208.644 57.0256 208.727 56.9015 208.769 56.7774C208.81 56.6533 208.852 56.4878 208.852 56.3637H207.94C207.774 56.3637 207.608 56.405 207.442 56.4464C207.318 56.4878 207.235 56.5705 207.152 56.6533C207.11 56.736 207.069 56.8601 207.069 56.9429C207.069 57.067 207.11 57.1497 207.152 57.2325C207.193 57.3152 207.276 57.398 207.401 57.4393C207.525 57.4807 207.691 57.5221 207.857 57.4807H207.815ZM210.925 58.184V54.0055H211.795L211.878 54.7088C212.003 54.4606 212.21 54.2537 212.417 54.1296C212.666 53.9641 212.956 53.9228 213.247 53.9228C213.537 53.9228 213.827 54.0055 214.117 54.1296C214.366 54.2537 214.532 54.502 214.656 54.7502C214.781 55.0812 214.864 55.4121 214.864 55.7431V58.184H213.869V55.8258C213.869 55.5362 213.827 55.2467 213.62 55.0398C213.454 54.8329 213.205 54.7502 212.915 54.7502C212.708 54.7502 212.542 54.7916 212.376 54.8743C212.21 54.9571 212.086 55.1225 212.003 55.288C211.92 55.4949 211.878 55.7017 211.878 55.95V58.184H210.925ZM217.766 58.184C217.517 58.184 217.268 58.1426 217.02 58.0599C216.812 57.9771 216.646 57.8117 216.522 57.6048C216.398 57.3566 216.315 57.067 216.356 56.7774V54.8329H215.651V54.0055H216.356L216.481 52.8885H217.393V54.0055H218.512V54.8329H217.393V56.7774C217.393 56.9429 217.434 57.1084 217.517 57.1911C217.641 57.2738 217.807 57.3152 217.973 57.3152H218.471V58.1426L217.766 58.184Z" fill="#C15696"/>
</g>
<defs>
<linearGradient id="paint0_linear_258_4002" x1="31" y1="12" x2="31" y2="51" gradientUnits="userSpaceOnUse">
<stop stop-color="#A20061" stop-opacity="0"/>
<stop offset="0.544" stop-color="#A20061" stop-opacity="0.7"/>
<stop offset="1" stop-color="#A20061" stop-opacity="0"/>
</linearGradient>
<clipPath id="clip0_258_4002">
<rect width="232" height="70" fill="white"/>
</clipPath>
</defs>
</svg>
