<svg width="64" height="59" viewBox="0 0 64 59" fill="none" xmlns="http://www.w3.org/2000/svg">
<path d="M1.46784 21.1419C2.15846 17.5119 3.56198 14.0812 5.58929 11.0045M1 26.2327C1 31.0358 2.24757 35.7281 4.63133 39.9115M59.3018 40C61.7302 35.8167 63 31.0579 63 26.2327C63 18.3309 59.636 11.1595 54.1556 5.91373M51.0812 3.32406C49.9673 2.50511 48.8088 1.77469 47.6058 1.11067M16.6392 1C13.9659 2.41657 11.5376 4.20942 9.39885 6.33428M20.7607 11.1152C16.9066 13.2179 13.9436 16.4274 12.4732 20.2123M11.4707 25.6351C11.4707 27.9591 12.0054 30.2389 13.0525 32.3195M14.456 34.6879C15.4808 36.1044 16.7284 37.3882 18.1319 38.4506C18.3992 38.672 18.466 38.7162 18.7557 38.9154M45.2443 38.2293C46.2023 37.4546 47.0934 36.6135 47.8732 35.6617M50.5465 31.235C51.705 28.3354 51.9501 25.1481 51.2149 22.1158M49.4549 17.8439C47.94 15.3428 45.8236 13.2179 43.3061 11.6907" stroke="url(#paint0_linear_275_4799)" stroke-miterlimit="10" stroke-linecap="round" stroke-linejoin="round"/>
<path d="M58.541 48.0016C57.923 47.7806 57.2829 47.6038 56.5325 47.3607C58.7396 46.4546 59.777 44.5761 60.9688 42.8744C61.1675 42.6092 61.0571 41.8357 60.7922 41.6147C60.4832 41.3495 59.8873 41.3937 59.4017 41.3937C59.2031 41.3937 59.0045 41.6368 58.7617 41.8136C58.7396 41.46 58.7175 41.1948 58.6734 40.9517C58.6292 40.6865 58.563 40.4213 58.4747 40.1561C58.254 39.4268 57.5036 38.808 56.996 38.9185C56.2897 39.0953 55.9145 39.8467 56.0469 40.7307C56.0911 40.9959 56.0248 41.239 55.9145 41.46C55.5834 41.9683 55.2082 42.4545 54.7888 42.8965C53.6191 44.1341 52.1844 44.112 50.9043 42.8744C49.889 42.3661 48.8296 41.9683 47.8585 41.3716C45.0554 39.6257 43.8415 36.9958 43.5546 33.7692C43.3559 31.294 42.9145 28.8409 42.6276 26.3657C42.4951 25.2828 42.0758 24.5314 41.1709 24.0673V24.0452C39.8686 23.4485 38.6106 22.7855 37.3746 22.1004C36.867 21.8131 36.4255 21.4595 36.0282 21.0396C35.5206 20.5534 35.1675 19.9346 35.013 19.2495C37.0435 17.5257 38.434 14.277 38.434 11.1388C38.434 6.58621 35.1454 4.00052 31.5478 4.00052C29.76 3.97842 28.0605 4.66352 26.7804 5.90112C24.9264 7.73541 24.816 10.1001 24.7719 11.1388C24.6174 14.6527 26.5817 16.9511 28.1488 18.7854C28.215 18.8517 28.2812 18.918 28.3474 18.9843C28.3474 19.0948 28.2591 19.9788 27.3101 20.9733C26.9128 21.3932 26.4493 21.7468 25.9637 22.0341C24.7277 22.7192 23.4476 23.3822 22.1675 23.9789C21.1963 24.4209 20.7549 25.106 20.6225 26.1226C20.2252 29.1945 19.7617 32.2443 19.3203 35.3162C18.9451 38.0124 17.4221 39.9572 15.215 41.3716L13.5817 42.3219C12.9196 42.6976 12.8975 42.6534 12.0147 43.1617C11.0215 43.8026 9.93996 44.2225 9.05711 43.4711C8.15219 42.7197 6.80584 42.1009 7.09277 40.3992C7.15898 40.0235 6.65134 39.3384 6.23199 39.1174C5.63606 38.7859 5.15049 39.2058 4.92978 39.8688C4.70907 40.5318 4.92978 42.4103 4.73114 42.4987C4.53249 42.565 2.96543 40.9517 2.30329 41.681C1.64115 42.4103 2.08258 43.0733 2.56815 43.6921C3.69379 45.1286 4.68699 46.6977 6.47477 47.3607C5.48156 47.7364 4.51042 48.0016 3.62757 48.4436C1.08937 49.7474 0.294806 52.3331 1.66323 54.8525C2.81093 56.9741 4.75321 58.057 7.00448 58.5874C9.82961 59.2504 12.6768 59.0294 15.5019 58.5211C19.0996 57.8581 22.5206 56.6426 25.8534 55.2061C26.5376 54.8746 27.3101 54.7641 28.0384 54.9188C30.069 55.3608 32.1658 55.626 34.1743 55.0735C35.7413 54.6536 37.0435 55.0072 38.434 55.6039C43.2014 57.6592 48.1675 58.9852 53.4204 58.7863C55.7158 58.6979 57.8568 58.1675 59.6887 56.6868C60.9467 55.6702 61.8296 54.4326 61.9841 52.7972C62.1607 50.6756 60.8585 48.8635 58.541 48.0016ZM15.5902 57.5045C12.7872 58.0128 9.98411 58.278 7.18105 57.6813C5.39328 57.3498 3.82621 56.3332 2.76679 54.8525C1.28801 52.8193 1.79565 50.5209 4.02486 49.3054C6.27613 48.0679 8.74811 48.0678 11.1097 48.7308C13.7583 49.4822 16.2965 50.5651 18.8347 51.6038C20.9756 52.4657 23.0503 53.4381 25.2795 54.4326C22.1013 55.7365 18.9451 56.9078 15.5902 57.5045ZM17.687 49.7253C18.0181 49.7032 18.3271 49.7032 18.6581 49.7474C19.0996 49.8358 19.541 49.9684 19.9603 50.1452C21.417 50.7198 23.0062 50.764 24.485 50.2999C25.1471 50.101 25.8313 50.0126 26.5376 49.9905C27.3984 49.9684 27.9943 50.4104 28.0605 51.3165C28.1267 52.2226 28.5019 52.5983 29.4289 52.5983C30.4663 52.5983 30.8194 53.0182 31.0622 54.3884C26.1624 54.0127 21.8805 52.09 17.687 49.7253ZM31.8126 52.5541C30.9298 52.2226 30.1793 51.9574 29.451 51.6259C29.2303 51.5154 29.0758 51.3165 29.0096 51.0734C28.5902 49.5485 27.5529 48.8192 25.9637 49.0181C25.8313 49.0181 25.7209 49.0402 25.6106 49.0844C23.3814 49.8358 21.2184 49.9463 19.0113 48.8193C18.1063 48.3552 17.2235 48.7529 16.5393 49.5043L13.1182 48.1783L13.0741 47.9795C13.9128 47.8248 14.7736 47.5817 15.6123 47.5154C17.1131 47.4049 18.6361 47.3165 20.159 47.3386C22.1454 47.3828 23.4255 46.4325 24.2642 44.7087C25.4561 42.2777 25.5223 39.6478 25.2574 37.04C25.1471 35.8466 24.7719 34.6753 24.4187 33.5261C24.3305 33.2167 23.867 33.0178 23.58 32.7526C23.58 33.1283 23.4476 33.5482 23.58 33.8797C24.8602 36.8632 24.2642 39.7141 21.726 41.7473C18.1946 44.5761 14.0673 46.1673 9.63097 46.8745C7.73283 47.1839 6.09956 46.4767 4.81942 45.0402C4.09107 44.2225 3.451 43.3164 2.89922 42.3882C3.84829 42.4545 4.17935 43.1175 4.51042 43.8026C4.77528 44.3993 5.08428 44.9518 5.87884 44.9297C6.51891 44.9076 6.84998 44.7087 6.65134 43.9573C6.47477 43.3164 6.40856 42.6534 6.47477 41.9904C6.87205 42.4766 7.24726 42.9628 7.62248 43.449C8.57154 44.5982 9.78546 45.0181 11.198 44.4877C13.9128 43.4932 16.3186 42.0346 18.2608 39.8246C19.6955 38.1892 20.1369 36.2002 20.4018 34.1228C20.7549 31.4708 21.1522 28.8409 21.5053 26.1889C21.5495 25.6143 21.9247 25.106 22.4544 24.8629C23.7345 24.2441 25.0147 23.6253 26.2507 22.9181C27.6411 22.1446 28.7668 21.1501 28.9213 19.4484C29.3406 19.7136 29.7821 19.9567 30.2235 20.1335C30.378 20.1777 30.5325 20.1114 30.5987 19.9567C30.5987 19.9346 30.6208 19.9125 30.6208 19.8904L30.6428 19.6031C30.6649 19.3821 30.5546 19.1832 30.3559 19.0948C27.7736 18.0782 25.5664 14.5864 25.5664 11.2272C25.5664 7.24921 28.3474 4.99502 31.5036 4.99502C34.6598 4.99502 37.507 7.24921 37.507 11.2272C37.507 14.7853 35.3661 18.1666 32.85 19.2716C32.6734 19.3379 32.5851 19.5147 32.5851 19.6915L32.6293 20.0009C32.6513 20.1777 32.8058 20.3103 32.9824 20.2882C33.0045 20.2882 33.0486 20.2661 33.0707 20.2661C33.5121 20.1335 33.9535 19.9346 34.3288 19.6694C34.5495 21.2606 35.653 22.2109 36.9994 22.9623L37.2863 23.117L37.4408 23.2054C37.9926 23.5148 38.5664 23.8021 39.1403 24.0894C39.6259 24.3325 40.1114 24.5756 40.597 24.7966C41.1488 25.0176 41.524 25.5259 41.5461 26.1005C41.9213 29.0398 42.4289 31.9791 42.7379 34.9405C42.9807 37.6146 44.4153 40.0456 46.6225 41.5484C48.035 42.5429 49.5359 43.4048 51.1029 44.112C53.3542 45.1507 54.8771 44.5761 56.1573 42.4324C56.3118 42.1451 56.5325 41.8799 56.7973 41.7031C56.6649 42.3219 56.5987 42.9628 56.5325 43.5816C56.5325 43.9794 56.7091 44.3772 56.7973 44.7971C57.2388 44.6645 57.7243 44.6203 58.0775 44.3551C58.3865 44.112 58.4748 43.6037 58.7396 43.2943C59.1369 42.8302 59.5783 42.4103 60.0197 41.9683L60.395 42.3219C59.3576 43.4711 58.4085 44.7308 57.2388 45.7253C55.8703 46.8745 54.1488 47.0292 52.4051 46.6314C48.8958 45.8358 45.541 44.5982 42.5172 42.6313C38.6327 40.134 38.3678 37.5041 39.2507 33.504C39.2948 33.3272 39.4272 33.1504 39.4052 32.9957C39.361 32.7526 39.2727 32.5316 39.1624 32.3106C38.9637 32.4211 38.6106 32.5095 38.5664 32.6642C38.3457 33.283 38.1912 33.946 38.0809 34.609C37.9043 35.8687 37.7498 37.1284 37.6394 38.4102C37.3967 40.576 37.816 42.7418 38.8092 44.6645C39.6479 46.2336 40.906 47.0513 42.76 47.0734C44.6802 47.1176 46.6225 47.4049 48.5427 47.6038C48.8517 47.6259 49.1607 47.8027 49.6462 47.9573C48.5868 48.4214 47.6819 48.7972 46.777 49.1508C46.6004 49.195 46.4238 49.1728 46.2914 49.0623C45.4085 48.2446 44.4374 48.4878 43.4883 48.8634C42.2965 49.3275 41.1488 49.9021 39.8024 49.5706C39.0299 49.3938 38.2795 49.1286 37.507 49.0181C35.4323 48.6866 34.4833 49.3717 34.108 51.5154C33.181 51.6038 32.1878 51.7806 31.8126 52.5541ZM15.1267 46.4104C18.4816 44.9297 22.0792 43.6037 24.2863 40.2445C24.485 41.7694 23.7345 44.4877 22.631 45.4601C22.035 45.9684 21.3067 46.2778 20.5563 46.3662C18.7243 46.4988 16.8704 46.4104 15.1267 46.4104ZM47.5053 46.1894C45.6513 46.1894 43.8194 46.2115 41.9654 46.1894C41.0826 46.1894 40.5529 45.5706 40.0673 44.9297C39.0962 43.5816 38.7651 42.0125 38.5885 40.2003C40.9281 43.4048 44.1726 44.9297 47.5053 46.1894ZM32.2761 54.4105C32.2982 53.1066 32.7175 52.5983 33.8432 52.5983C34.6157 52.5762 35.1012 52.2889 35.1233 51.5154C35.1454 50.2115 36.2048 49.8358 37.2201 50.0126C37.7277 50.101 38.2354 50.2115 38.7209 50.3662C40.1556 50.7861 41.7006 50.7198 43.0911 50.1452C43.7973 49.8579 44.5698 49.7032 45.3423 49.6811C41.2591 52.0016 37.0656 53.9685 32.2761 54.4105ZM58.6955 56.2227C57.1284 57.4161 55.2965 57.7476 53.3984 57.836C48.8296 58.057 44.5036 56.952 40.288 55.3608C39.4714 55.0514 38.6547 54.6978 37.7939 54.3663C41.3916 52.753 44.8788 51.0955 48.4102 49.6148C51.2133 48.4214 54.1708 47.9574 57.2167 48.5983C59.0486 48.974 60.6598 49.8579 61.0129 51.9132C61.3219 53.8359 60.1522 55.1398 58.6955 56.2227ZM32.2541 24.7303C32.4748 24.8408 32.6955 24.9292 32.9383 24.9734C32.0554 25.0397 31.6361 25.4817 31.5919 26.3215C31.5478 25.5038 31.1726 25.0397 30.2456 24.9955C31.0843 24.8187 31.5919 24.3767 31.614 23.5369C31.6361 23.7579 31.7023 23.9789 31.7685 24.1778C31.9009 24.4209 32.0554 24.5977 32.2541 24.7303ZM30.0248 9.61391C31.0181 9.39291 31.5919 8.90671 31.614 7.91221C31.6361 8.17741 31.7023 8.42051 31.8126 8.66361C31.9451 8.90671 32.1437 9.12771 32.3644 9.28241C32.6293 9.41501 32.8941 9.50341 33.159 9.56971C32.1437 9.63601 31.6581 10.1664 31.5919 11.1388C31.5478 10.2106 31.1063 9.65811 30.0248 9.61391ZM32.2541 45.5706C32.4748 45.6811 32.6955 45.7695 32.9383 45.8137C32.0554 45.88 31.6361 46.322 31.5919 47.1618C31.5478 46.3441 31.1726 45.88 30.2456 45.8358C31.0843 45.659 31.5919 45.217 31.614 44.3772C31.6361 44.5982 31.7023 44.8192 31.7685 45.0181C31.9009 45.2391 32.0554 45.438 32.2541 45.5706ZM32.2541 34.6311C32.4748 34.7416 32.6955 34.83 32.9383 34.8742C32.0554 34.9405 31.6361 35.3825 31.5919 36.2223C31.5478 35.4046 31.1726 34.9405 30.2456 34.8963C31.0843 34.7195 31.5919 34.2775 31.614 33.4377C31.6361 33.6587 31.7023 33.8797 31.7685 34.0786C31.9009 34.2996 32.0554 34.4985 32.2541 34.6311Z" fill="#C05495"/>
<defs>
<linearGradient id="paint0_linear_275_4799" x1="32" y1="1" x2="32" y2="40" gradientUnits="userSpaceOnUse">
<stop stop-color="#A20061" stop-opacity="0"/>
<stop offset="0.544" stop-color="#A20061" stop-opacity="0.7"/>
<stop offset="1" stop-color="#A20061" stop-opacity="0"/>
</linearGradient>
</defs>
</svg>
